<mxfile host="Electron" agent="Mozilla/5.0 (Windows NT 10.0; Win64; x64) AppleWebKit/537.36 (KHTML, like Gecko) draw.io/24.7.5 Chrome/126.0.6478.183 Electron/31.3.0 Safari/537.36" version="24.7.5">
  <diagram name="Página-1" id="r2H21puFCstjgXxJu4hi">
    <mxGraphModel dx="1035" dy="1795" grid="1" gridSize="10" guides="1" tooltips="1" connect="1" arrows="1" fold="1" page="1" pageScale="1" pageWidth="827" pageHeight="1169" math="0" shadow="0">
      <root>
        <mxCell id="0" />
        <mxCell id="1" parent="0" />
        <mxCell id="Vd7hiRlCTVyiGkZTE5I--5" value="HoradeTrabalho,&amp;nbsp;HorasTrabalhada, SalarioBruto , IR, NSS, FGTS, TotaldeDescontos, SalarioLiquido&amp;nbsp;" style="rounded=1;whiteSpace=wrap;html=1;absoluteArcSize=1;arcSize=14;strokeWidth=2;align=center;" vertex="1" parent="1">
          <mxGeometry x="280" y="-110" width="300" height="100" as="geometry" />
        </mxCell>
        <mxCell id="Vd7hiRlCTVyiGkZTE5I--7" value="HoradeTrabalho" style="html=1;strokeWidth=2;shape=manualInput;whiteSpace=wrap;rounded=1;size=26;arcSize=11;" vertex="1" parent="1">
          <mxGeometry x="340" y="140" width="190" height="60" as="geometry" />
        </mxCell>
        <mxCell id="Vd7hiRlCTVyiGkZTE5I--8" value="Olá mundo!" style="strokeWidth=2;html=1;shape=mxgraph.flowchart.display;whiteSpace=wrap;spacing=2;" vertex="1" parent="1">
          <mxGeometry x="380" width="100" height="60" as="geometry" />
        </mxCell>
        <mxCell id="Vd7hiRlCTVyiGkZTE5I--9" value="Início" style="strokeWidth=2;html=1;shape=mxgraph.flowchart.terminator;whiteSpace=wrap;" vertex="1" parent="1">
          <mxGeometry x="380" y="-180" width="100" height="60" as="geometry" />
        </mxCell>
        <mxCell id="Vd7hiRlCTVyiGkZTE5I--10" value="Informe o valor de Hora de Trabalho" style="strokeWidth=2;html=1;shape=mxgraph.flowchart.display;whiteSpace=wrap;spacing=2;" vertex="1" parent="1">
          <mxGeometry x="335" y="70" width="190" height="60" as="geometry" />
        </mxCell>
        <mxCell id="Vd7hiRlCTVyiGkZTE5I--11" value="HorasTrabalhadas" style="html=1;strokeWidth=2;shape=manualInput;whiteSpace=wrap;rounded=1;size=26;arcSize=11;" vertex="1" parent="1">
          <mxGeometry x="332.5" y="280" width="195" height="60" as="geometry" />
        </mxCell>
        <mxCell id="Vd7hiRlCTVyiGkZTE5I--12" value="Informe o valor de Horas Trabalhadas no mês" style="strokeWidth=2;html=1;shape=mxgraph.flowchart.display;whiteSpace=wrap;spacing=2;" vertex="1" parent="1">
          <mxGeometry x="340" y="210" width="180" height="60" as="geometry" />
        </mxCell>
        <mxCell id="Vd7hiRlCTVyiGkZTE5I--13" value="SalarioBruto &lt;- HoradeTrabalho*HorasTrabalhadas" style="rounded=1;whiteSpace=wrap;html=1;absoluteArcSize=1;arcSize=14;strokeWidth=2;" vertex="1" parent="1">
          <mxGeometry x="276.25" y="350" width="317.5" height="60" as="geometry" />
        </mxCell>
        <mxCell id="Vd7hiRlCTVyiGkZTE5I--15" value="IR &lt;- SalarioBruto*0,15" style="rounded=1;whiteSpace=wrap;html=1;absoluteArcSize=1;arcSize=14;strokeWidth=2;" vertex="1" parent="1">
          <mxGeometry x="276.25" y="420" width="317.5" height="60" as="geometry" />
        </mxCell>
        <mxCell id="Vd7hiRlCTVyiGkZTE5I--16" value="INSS &lt;- SalarioBruto*0,10" style="rounded=1;whiteSpace=wrap;html=1;absoluteArcSize=1;arcSize=14;strokeWidth=2;" vertex="1" parent="1">
          <mxGeometry x="276.25" y="490" width="317.5" height="60" as="geometry" />
        </mxCell>
        <mxCell id="Vd7hiRlCTVyiGkZTE5I--17" value="FGTS &lt;- SalarioBruto*0,11" style="rounded=1;whiteSpace=wrap;html=1;absoluteArcSize=1;arcSize=14;strokeWidth=2;" vertex="1" parent="1">
          <mxGeometry x="276.25" y="560" width="317.5" height="60" as="geometry" />
        </mxCell>
        <mxCell id="Vd7hiRlCTVyiGkZTE5I--18" value="TotaldeDescontos &lt;- IR+INSS" style="rounded=1;whiteSpace=wrap;html=1;absoluteArcSize=1;arcSize=14;strokeWidth=2;" vertex="1" parent="1">
          <mxGeometry x="276.25" y="630" width="317.5" height="60" as="geometry" />
        </mxCell>
        <mxCell id="Vd7hiRlCTVyiGkZTE5I--19" value="SalarioLiquido &lt;- Salário Bruto-Total de descontos" style="rounded=1;whiteSpace=wrap;html=1;absoluteArcSize=1;arcSize=14;strokeWidth=2;" vertex="1" parent="1">
          <mxGeometry x="276.25" y="700" width="317.5" height="60" as="geometry" />
        </mxCell>
        <mxCell id="Vd7hiRlCTVyiGkZTE5I--23" value="SalarioBruto&amp;nbsp;" style="strokeWidth=2;html=1;shape=mxgraph.flowchart.display;whiteSpace=wrap;spacing=2;" vertex="1" parent="1">
          <mxGeometry x="345" y="770" width="180" height="60" as="geometry" />
        </mxCell>
        <mxCell id="Vd7hiRlCTVyiGkZTE5I--24" value="IR" style="strokeWidth=2;html=1;shape=mxgraph.flowchart.display;whiteSpace=wrap;spacing=2;" vertex="1" parent="1">
          <mxGeometry x="340" y="840" width="180" height="60" as="geometry" />
        </mxCell>
        <mxCell id="Vd7hiRlCTVyiGkZTE5I--25" value="NSS" style="strokeWidth=2;html=1;shape=mxgraph.flowchart.display;whiteSpace=wrap;spacing=2;" vertex="1" parent="1">
          <mxGeometry x="340" y="910" width="180" height="60" as="geometry" />
        </mxCell>
        <mxCell id="Vd7hiRlCTVyiGkZTE5I--26" value="FGTS" style="strokeWidth=2;html=1;shape=mxgraph.flowchart.display;whiteSpace=wrap;spacing=2;" vertex="1" parent="1">
          <mxGeometry x="340" y="980" width="180" height="60" as="geometry" />
        </mxCell>
        <mxCell id="Vd7hiRlCTVyiGkZTE5I--27" value="TotaldeDescontos" style="strokeWidth=2;html=1;shape=mxgraph.flowchart.display;whiteSpace=wrap;spacing=2;" vertex="1" parent="1">
          <mxGeometry x="340" y="1050" width="180" height="60" as="geometry" />
        </mxCell>
        <mxCell id="Vd7hiRlCTVyiGkZTE5I--28" value="SalarioLiquido&amp;nbsp;" style="strokeWidth=2;html=1;shape=mxgraph.flowchart.display;whiteSpace=wrap;spacing=2;" vertex="1" parent="1">
          <mxGeometry x="340" y="1120" width="180" height="60" as="geometry" />
        </mxCell>
        <mxCell id="Vd7hiRlCTVyiGkZTE5I--29" value="Fim" style="strokeWidth=2;html=1;shape=mxgraph.flowchart.terminator;whiteSpace=wrap;" vertex="1" parent="1">
          <mxGeometry x="385" y="1190" width="100" height="60" as="geometry" />
        </mxCell>
      </root>
    </mxGraphModel>
  </diagram>
</mxfile>
